<mxfile host="app.diagrams.net" agent="Mozilla/5.0 (Windows NT 10.0; Win64; x64) AppleWebKit/537.36 (KHTML, like Gecko) Chrome/140.0.0.0 Safari/537.36" version="28.2.3">
  <diagram name="Page-1" id="hk8dIqoj4GYmcfocBwwS">
    <mxGraphModel dx="797" dy="900" grid="0" gridSize="10" guides="1" tooltips="1" connect="1" arrows="1" fold="1" page="1" pageScale="1" pageWidth="1169" pageHeight="1654" math="0" shadow="0">
      <root>
        <mxCell id="0" />
        <mxCell id="1" parent="0" />
        <mxCell id="alNpC-E856-5-VyF36xR-1" value="Main" style="rounded=0;whiteSpace=wrap;html=1;" vertex="1" parent="1">
          <mxGeometry x="500" y="190" width="120" height="60" as="geometry" />
        </mxCell>
        <mxCell id="alNpC-E856-5-VyF36xR-2" value="ui.run" style="rounded=1;whiteSpace=wrap;html=1;" vertex="1" parent="1">
          <mxGeometry x="310" y="320" width="120" height="60" as="geometry" />
        </mxCell>
        <mxCell id="alNpC-E856-5-VyF36xR-3" value="" style="endArrow=classic;html=1;rounded=0;fontSize=12;startSize=8;endSize=8;curved=1;exitX=0.5;exitY=1;exitDx=0;exitDy=0;entryX=0.5;entryY=0;entryDx=0;entryDy=0;" edge="1" parent="1" source="alNpC-E856-5-VyF36xR-1" target="alNpC-E856-5-VyF36xR-2">
          <mxGeometry width="50" height="50" relative="1" as="geometry">
            <mxPoint x="470" y="380" as="sourcePoint" />
            <mxPoint x="520" y="330" as="targetPoint" />
          </mxGeometry>
        </mxCell>
        <mxCell id="alNpC-E856-5-VyF36xR-4" value="callback, board" style="text;html=1;align=center;verticalAlign=middle;resizable=0;points=[];autosize=1;strokeColor=none;fillColor=none;" vertex="1" parent="1">
          <mxGeometry x="330" y="270" width="100" height="30" as="geometry" />
        </mxCell>
        <mxCell id="alNpC-E856-5-VyF36xR-5" value="Interface" style="rounded=1;whiteSpace=wrap;html=1;" vertex="1" parent="1">
          <mxGeometry x="500" y="340" width="120" height="60" as="geometry" />
        </mxCell>
        <mxCell id="alNpC-E856-5-VyF36xR-6" value="" style="endArrow=classic;html=1;rounded=0;fontSize=12;startSize=8;endSize=8;curved=1;exitX=0.5;exitY=1;exitDx=0;exitDy=0;entryX=0.5;entryY=0;entryDx=0;entryDy=0;" edge="1" parent="1" source="alNpC-E856-5-VyF36xR-1" target="alNpC-E856-5-VyF36xR-5">
          <mxGeometry width="50" height="50" relative="1" as="geometry">
            <mxPoint x="630" y="370" as="sourcePoint" />
            <mxPoint x="680" y="320" as="targetPoint" />
          </mxGeometry>
        </mxCell>
        <mxCell id="alNpC-E856-5-VyF36xR-7" value="board (game)" style="text;html=1;align=center;verticalAlign=middle;resizable=0;points=[];autosize=1;strokeColor=none;fillColor=none;" vertex="1" parent="1">
          <mxGeometry x="550" y="280" width="100" height="30" as="geometry" />
        </mxCell>
        <mxCell id="alNpC-E856-5-VyF36xR-8" value="drawCallback" style="rounded=1;whiteSpace=wrap;html=1;" vertex="1" parent="1">
          <mxGeometry x="500" y="440" width="120" height="60" as="geometry" />
        </mxCell>
        <mxCell id="alNpC-E856-5-VyF36xR-9" value="main" style="whiteSpace=wrap;html=1;" vertex="1" parent="1">
          <mxGeometry x="420" y="690" width="120" height="60" as="geometry" />
        </mxCell>
        <mxCell id="alNpC-E856-5-VyF36xR-10" value="Interface::run()" style="rounded=1;whiteSpace=wrap;html=1;" vertex="1" parent="1">
          <mxGeometry x="420" y="810" width="120" height="60" as="geometry" />
        </mxCell>
        <mxCell id="alNpC-E856-5-VyF36xR-15" value="" style="edgeStyle=none;orthogonalLoop=1;jettySize=auto;html=1;rounded=0;exitX=0.5;exitY=1;exitDx=0;exitDy=0;entryX=0.5;entryY=0;entryDx=0;entryDy=0;" edge="1" parent="1" source="alNpC-E856-5-VyF36xR-9" target="alNpC-E856-5-VyF36xR-10">
          <mxGeometry width="100" relative="1" as="geometry">
            <mxPoint x="350" y="990" as="sourcePoint" />
            <mxPoint x="450" y="990" as="targetPoint" />
            <Array as="points" />
          </mxGeometry>
        </mxCell>
        <mxCell id="alNpC-E856-5-VyF36xR-22" value="gameCallBack" style="rounded=1;whiteSpace=wrap;html=1;" vertex="1" parent="1">
          <mxGeometry x="420" y="930" width="120" height="60" as="geometry" />
        </mxCell>
        <mxCell id="alNpC-E856-5-VyF36xR-23" value="" style="edgeStyle=none;orthogonalLoop=1;jettySize=auto;html=1;rounded=0;exitX=0.5;exitY=1;exitDx=0;exitDy=0;" edge="1" parent="1" source="alNpC-E856-5-VyF36xR-10" target="alNpC-E856-5-VyF36xR-22">
          <mxGeometry width="100" relative="1" as="geometry">
            <mxPoint x="480" y="880" as="sourcePoint" />
            <mxPoint x="470" y="1210" as="targetPoint" />
            <Array as="points" />
          </mxGeometry>
        </mxCell>
        <mxCell id="alNpC-E856-5-VyF36xR-25" value="Game::update" style="rounded=1;whiteSpace=wrap;html=1;" vertex="1" parent="1">
          <mxGeometry x="300" y="1050" width="120" height="60" as="geometry" />
        </mxCell>
        <mxCell id="alNpC-E856-5-VyF36xR-26" value="Game::display" style="rounded=1;whiteSpace=wrap;html=1;" vertex="1" parent="1">
          <mxGeometry x="540" y="1050" width="120" height="60" as="geometry" />
        </mxCell>
        <mxCell id="alNpC-E856-5-VyF36xR-27" value="readFile" style="rounded=1;whiteSpace=wrap;html=1;" vertex="1" parent="1">
          <mxGeometry x="220" y="810" width="120" height="60" as="geometry" />
        </mxCell>
        <mxCell id="alNpC-E856-5-VyF36xR-28" value="board" style="rounded=1;whiteSpace=wrap;html=1;" vertex="1" parent="1">
          <mxGeometry x="220" y="910" width="120" height="60" as="geometry" />
        </mxCell>
        <mxCell id="alNpC-E856-5-VyF36xR-31" value="" style="edgeStyle=none;orthogonalLoop=1;jettySize=auto;html=1;rounded=0;exitX=0.5;exitY=0;exitDx=0;exitDy=0;entryX=0.5;entryY=1;entryDx=0;entryDy=0;" edge="1" parent="1" source="alNpC-E856-5-VyF36xR-28" target="alNpC-E856-5-VyF36xR-27">
          <mxGeometry width="100" relative="1" as="geometry">
            <mxPoint x="340" y="930" as="sourcePoint" />
            <mxPoint x="440" y="930" as="targetPoint" />
            <Array as="points" />
          </mxGeometry>
        </mxCell>
        <mxCell id="alNpC-E856-5-VyF36xR-32" value="board" style="text;html=1;align=center;verticalAlign=middle;resizable=0;points=[];autosize=1;strokeColor=none;fillColor=none;" vertex="1" parent="1">
          <mxGeometry x="285" y="878" width="50" height="30" as="geometry" />
        </mxCell>
        <mxCell id="alNpC-E856-5-VyF36xR-33" value="" style="edgeStyle=none;orthogonalLoop=1;jettySize=auto;html=1;rounded=0;exitX=0.5;exitY=0;exitDx=0;exitDy=0;entryX=0;entryY=0.5;entryDx=0;entryDy=0;" edge="1" parent="1" source="alNpC-E856-5-VyF36xR-27" target="alNpC-E856-5-VyF36xR-9">
          <mxGeometry width="100" relative="1" as="geometry">
            <mxPoint x="350" y="780" as="sourcePoint" />
            <mxPoint x="450" y="780" as="targetPoint" />
            <Array as="points" />
          </mxGeometry>
        </mxCell>
        <mxCell id="alNpC-E856-5-VyF36xR-34" value="board data" style="text;html=1;align=center;verticalAlign=middle;resizable=0;points=[];autosize=1;strokeColor=none;fillColor=none;" vertex="1" parent="1">
          <mxGeometry x="330" y="770" width="80" height="30" as="geometry" />
        </mxCell>
        <mxCell id="alNpC-E856-5-VyF36xR-35" value="" style="edgeStyle=none;orthogonalLoop=1;jettySize=auto;html=1;rounded=0;exitX=0.5;exitY=1;exitDx=0;exitDy=0;entryX=0.5;entryY=0;entryDx=0;entryDy=0;" edge="1" parent="1" source="alNpC-E856-5-VyF36xR-22" target="alNpC-E856-5-VyF36xR-25">
          <mxGeometry width="100" relative="1" as="geometry">
            <mxPoint x="410" y="1150" as="sourcePoint" />
            <mxPoint x="510" y="1150" as="targetPoint" />
            <Array as="points" />
          </mxGeometry>
        </mxCell>
        <mxCell id="alNpC-E856-5-VyF36xR-36" value="" style="edgeStyle=none;orthogonalLoop=1;jettySize=auto;html=1;rounded=0;exitX=0.5;exitY=1;exitDx=0;exitDy=0;entryX=0.5;entryY=0;entryDx=0;entryDy=0;" edge="1" parent="1" source="alNpC-E856-5-VyF36xR-22" target="alNpC-E856-5-VyF36xR-26">
          <mxGeometry width="100" relative="1" as="geometry">
            <mxPoint x="460" y="1110" as="sourcePoint" />
            <mxPoint x="560" y="1110" as="targetPoint" />
            <Array as="points" />
          </mxGeometry>
        </mxCell>
        <mxCell id="alNpC-E856-5-VyF36xR-37" value="ogstream" style="rounded=1;whiteSpace=wrap;html=1;" vertex="1" parent="1">
          <mxGeometry x="540" y="1170" width="120" height="60" as="geometry" />
        </mxCell>
        <mxCell id="alNpC-E856-5-VyF36xR-38" value="" style="edgeStyle=none;orthogonalLoop=1;jettySize=auto;html=1;rounded=0;exitX=0.5;exitY=1;exitDx=0;exitDy=0;entryX=0.5;entryY=0;entryDx=0;entryDy=0;" edge="1" parent="1" source="alNpC-E856-5-VyF36xR-26" target="alNpC-E856-5-VyF36xR-37">
          <mxGeometry width="100" relative="1" as="geometry">
            <mxPoint x="660" y="1130" as="sourcePoint" />
            <mxPoint x="760" y="1130" as="targetPoint" />
            <Array as="points" />
          </mxGeometry>
        </mxCell>
        <mxCell id="alNpC-E856-5-VyF36xR-39" value="board, piece, UIDraw helpers" style="text;html=1;align=center;verticalAlign=middle;resizable=0;points=[];autosize=1;strokeColor=none;fillColor=none;" vertex="1" parent="1">
          <mxGeometry x="600" y="1130" width="180" height="30" as="geometry" />
        </mxCell>
        <mxCell id="alNpC-E856-5-VyF36xR-42" value="Board::movePiece" style="rounded=1;whiteSpace=wrap;html=1;" vertex="1" parent="1">
          <mxGeometry x="300" y="1170" width="120" height="60" as="geometry" />
        </mxCell>
        <mxCell id="alNpC-E856-5-VyF36xR-43" value="Piece::isMoveValid" style="rounded=1;whiteSpace=wrap;html=1;" vertex="1" parent="1">
          <mxGeometry x="165" y="1290" width="120" height="60" as="geometry" />
        </mxCell>
        <mxCell id="alNpC-E856-5-VyF36xR-44" value="" style="edgeStyle=none;orthogonalLoop=1;jettySize=auto;html=1;rounded=0;entryX=0.25;entryY=1;entryDx=0;entryDy=0;exitX=0.5;exitY=0;exitDx=0;exitDy=0;" edge="1" parent="1" source="alNpC-E856-5-VyF36xR-43" target="alNpC-E856-5-VyF36xR-42">
          <mxGeometry width="100" relative="1" as="geometry">
            <mxPoint x="80" y="1210" as="sourcePoint" />
            <mxPoint x="180" y="1210" as="targetPoint" />
            <Array as="points" />
          </mxGeometry>
        </mxCell>
        <mxCell id="alNpC-E856-5-VyF36xR-45" value="T/F" style="text;html=1;align=center;verticalAlign=middle;resizable=0;points=[];autosize=1;strokeColor=none;fillColor=none;" vertex="1" parent="1">
          <mxGeometry x="245" y="1238" width="40" height="30" as="geometry" />
        </mxCell>
        <mxCell id="alNpC-E856-5-VyF36xR-46" value="Piece::move" style="rounded=1;whiteSpace=wrap;html=1;" vertex="1" parent="1">
          <mxGeometry x="300" y="1290" width="120" height="60" as="geometry" />
        </mxCell>
        <mxCell id="alNpC-E856-5-VyF36xR-47" value="" style="edgeStyle=none;orthogonalLoop=1;jettySize=auto;html=1;rounded=0;exitX=0.5;exitY=1;exitDx=0;exitDy=0;entryX=0.5;entryY=0;entryDx=0;entryDy=0;" edge="1" parent="1" source="alNpC-E856-5-VyF36xR-42" target="alNpC-E856-5-VyF36xR-46">
          <mxGeometry width="100" relative="1" as="geometry">
            <mxPoint x="420" y="1270" as="sourcePoint" />
            <mxPoint x="520" y="1270" as="targetPoint" />
            <Array as="points" />
          </mxGeometry>
        </mxCell>
        <mxCell id="alNpC-E856-5-VyF36xR-48" value="move" style="text;html=1;align=center;verticalAlign=middle;resizable=0;points=[];autosize=1;strokeColor=none;fillColor=none;" vertex="1" parent="1">
          <mxGeometry x="370" y="1250" width="50" height="30" as="geometry" />
        </mxCell>
        <mxCell id="alNpC-E856-5-VyF36xR-49" value="" style="edgeStyle=none;orthogonalLoop=1;jettySize=auto;html=1;rounded=0;exitX=0.5;exitY=1;exitDx=0;exitDy=0;entryX=0.5;entryY=0;entryDx=0;entryDy=0;" edge="1" parent="1" source="alNpC-E856-5-VyF36xR-25" target="alNpC-E856-5-VyF36xR-42">
          <mxGeometry width="100" relative="1" as="geometry">
            <mxPoint x="400" y="1140" as="sourcePoint" />
            <mxPoint x="500" y="1140" as="targetPoint" />
            <Array as="points" />
          </mxGeometry>
        </mxCell>
        <mxCell id="alNpC-E856-5-VyF36xR-50" value="move" style="text;html=1;align=center;verticalAlign=middle;resizable=0;points=[];autosize=1;strokeColor=none;fillColor=none;" vertex="1" parent="1">
          <mxGeometry x="360" y="1120" width="50" height="30" as="geometry" />
        </mxCell>
        <mxCell id="alNpC-E856-5-VyF36xR-51" value="game, move" style="text;html=1;align=center;verticalAlign=middle;resizable=0;points=[];autosize=1;strokeColor=none;fillColor=none;" vertex="1" parent="1">
          <mxGeometry x="340" y="990" width="90" height="30" as="geometry" />
        </mxCell>
        <mxCell id="alNpC-E856-5-VyF36xR-52" value="set up" style="text;html=1;align=center;verticalAlign=middle;resizable=0;points=[];autosize=1;strokeColor=none;fillColor=none;" vertex="1" parent="1">
          <mxGeometry x="480" y="880" width="60" height="30" as="geometry" />
        </mxCell>
        <mxCell id="alNpC-E856-5-VyF36xR-53" value="game, board, UI" style="text;html=1;align=center;verticalAlign=middle;resizable=0;points=[];autosize=1;strokeColor=none;fillColor=none;" vertex="1" parent="1">
          <mxGeometry x="550" y="990" width="110" height="30" as="geometry" />
        </mxCell>
        <mxCell id="alNpC-E856-5-VyF36xR-54" value="board" style="rounded=1;whiteSpace=wrap;html=1;" vertex="1" parent="1">
          <mxGeometry x="450" y="1290" width="120" height="60" as="geometry" />
        </mxCell>
        <mxCell id="alNpC-E856-5-VyF36xR-55" value="" style="edgeStyle=none;orthogonalLoop=1;jettySize=auto;html=1;rounded=0;exitX=0.75;exitY=1;exitDx=0;exitDy=0;entryX=0.5;entryY=0;entryDx=0;entryDy=0;" edge="1" parent="1" source="alNpC-E856-5-VyF36xR-42" target="alNpC-E856-5-VyF36xR-54">
          <mxGeometry width="100" relative="1" as="geometry">
            <mxPoint x="370" y="1410" as="sourcePoint" />
            <mxPoint x="470" y="1410" as="targetPoint" />
            <Array as="points" />
          </mxGeometry>
        </mxCell>
        <mxCell id="alNpC-E856-5-VyF36xR-56" value="update" style="text;html=1;align=center;verticalAlign=middle;resizable=0;points=[];autosize=1;strokeColor=none;fillColor=none;" vertex="1" parent="1">
          <mxGeometry x="440" y="1230" width="60" height="30" as="geometry" />
        </mxCell>
      </root>
    </mxGraphModel>
  </diagram>
</mxfile>
